<svg width="20" height="20" viewBox="0 0 20 20" fill="none" xmlns="http://www.w3.org/2000/svg">
<path d="M19.8333 8.26667C19.0333 3.56667 14.9333 0 9.99996 0C5.06663 0 0.966626 3.56667 0.166626 8.26667L9.99996 3.33333L19.8333 8.26667ZM0.166626 11.7333C0.966626 16.4333 5.06663 20 9.99996 20C14.9333 20 19.0333 16.4333 19.8333 11.7333L9.99996 16.6667L0.166626 11.7333Z" fill="#699635"/>
<path d="M10 3.33333L0.166667 8.26666C0.0666667 8.83333 0 9.39999 0 9.99999C0 10.6 0.0666667 11.1667 0.166667 11.7333L10 16.6667L19.8333 11.7333C19.9333 11.1667 20 10.6 20 9.99999C20 9.39999 19.9333 8.83333 19.8333 8.26666L10 3.33333Z" fill="#FFE62E"/>
<path d="M8 8.8C6.93333 8.8 5.93333 9.03334 5.03333 9.43334C5 9.63334 5 9.8 5 10C5 12.7667 7.23333 15 10 15C11.8667 15 13.5 13.9667 14.3667 12.4667C13.1333 10.3 10.7333 8.8 8 8.8Z" fill="#428BC1"/>
<path d="M14.9333 10.8C14.9667 10.5333 15 10.2667 15 10C15 7.23333 12.7667 5 10 5C8.03333 5 6.33333 6.13333 5.5 7.8C6.3 7.56667 7.13333 7.43333 8 7.43333C10.8333 7.43333 13.3333 8.76667 14.9333 10.8Z" fill="#428BC1"/>
<path d="M7.99999 7.43332C7.13333 7.43332 6.29999 7.56665 5.49999 7.79999C5.26666 8.29999 5.09999 8.83332 5.03333 9.43332C5.93333 9.03332 6.93333 8.79999 7.99999 8.79999C10.7333 8.79999 13.1333 10.2667 14.3667 12.4333C14.6667 11.9333 14.8333 11.3667 14.9333 10.8C13.3333 8.76665 10.8333 7.43332 7.99999 7.43332Z" fill="white"/>
<path d="M6.66671 10.3333C6.8508 10.3333 7.00004 10.184 7.00004 9.99994C7.00004 9.81585 6.8508 9.66661 6.66671 9.66661C6.48261 9.66661 6.33337 9.81585 6.33337 9.99994C6.33337 10.184 6.48261 10.3333 6.66671 10.3333Z" fill="white"/>
<path d="M8.00008 12.3333C8.18418 12.3333 8.33341 12.1841 8.33341 12C8.33341 11.8159 8.18418 11.6666 8.00008 11.6666C7.81599 11.6666 7.66675 11.8159 7.66675 12C7.66675 12.1841 7.81599 12.3333 8.00008 12.3333Z" fill="white"/>
<path d="M10.0001 12.3333C10.1842 12.3333 10.3334 12.1841 10.3334 12C10.3334 11.8159 10.1842 11.6666 10.0001 11.6666C9.81599 11.6666 9.66675 11.8159 9.66675 12C9.66675 12.1841 9.81599 12.3333 10.0001 12.3333Z" fill="white"/>
<path d="M10.0001 13.6666C10.1842 13.6666 10.3334 13.5174 10.3334 13.3333C10.3334 13.1492 10.1842 13 10.0001 13C9.81599 13 9.66675 13.1492 9.66675 13.3333C9.66675 13.5174 9.81599 13.6666 10.0001 13.6666Z" fill="white"/>
<path d="M12.6666 12.3333C12.8507 12.3333 12.9999 12.1841 12.9999 12C12.9999 11.8159 12.8507 11.6666 12.6666 11.6666C12.4825 11.6666 12.3333 11.8159 12.3333 12C12.3333 12.1841 12.4825 12.3333 12.6666 12.3333Z" fill="white"/>
<path d="M12.6666 13.6666C12.8507 13.6666 12.9999 13.5174 12.9999 13.3333C12.9999 13.1492 12.8507 13 12.6666 13C12.4825 13 12.3333 13.1492 12.3333 13.3333C12.3333 13.5174 12.4825 13.6666 12.6666 13.6666Z" fill="white"/>
<path d="M11.3333 13C11.5174 13 11.6667 12.8507 11.6667 12.6666C11.6667 12.4825 11.5174 12.3333 11.3333 12.3333C11.1492 12.3333 11 12.4825 11 12.6666C11 12.8507 11.1492 13 11.3333 13Z" fill="white"/>
<path d="M6.66671 11.6666C6.8508 11.6666 7.00004 11.5174 7.00004 11.3333C7.00004 11.1492 6.8508 10.9999 6.66671 10.9999C6.48261 10.9999 6.33337 11.1492 6.33337 11.3333C6.33337 11.5174 6.48261 11.6666 6.66671 11.6666Z" fill="white"/>
</svg>