<svg width="20" height="20" viewBox="0 0 20 20" fill="none" xmlns="http://www.w3.org/2000/svg">
<path d="M15.3333 1.53333C13.7667 0.566667 11.9667 0 10 0V1.53333H15.3333Z" fill="#ED4C5C"/>
<path d="M10 3.06664H17.2C16.6333 2.49998 16 1.96664 15.3333 1.53331H10V3.06664Z" fill="white"/>
<path d="M10 4.6H18.4333C18.0667 4.03333 17.6667 3.53333 17.2333 3.06667H10V4.6Z" fill="#ED4C5C"/>
<path d="M10 6.13329H19.2333C19 5.59996 18.7333 5.06663 18.4333 4.59996H10V6.13329Z" fill="white"/>
<path d="M10 7.66665H19.7333C19.6 7.13332 19.4333 6.63332 19.2333 6.13332H10V7.66665Z" fill="#ED4C5C"/>
<path d="M10 9.23333H19.9667C19.9333 8.7 19.8333 8.2 19.7333 7.7H10V9.23333Z" fill="white"/>
<path d="M19.9667 9.23335H10V10H0C0 10.2667 -3.22859e-08 10.5 0.0333333 10.7667H19.9667C20 10.5 20 10.2667 20 10C20 9.73335 20 9.46669 19.9667 9.23335Z" fill="#ED4C5C"/>
<path d="M0.266659 12.3H19.7333C19.8667 11.8 19.9333 11.3 19.9667 10.7666H0.0333252C0.0666585 11.2666 0.133325 11.8 0.266659 12.3Z" fill="white"/>
<path d="M0.766724 13.8333H19.2334C19.4334 13.3333 19.6001 12.8333 19.7334 12.3H0.266724C0.400057 12.8333 0.566724 13.3333 0.766724 13.8333Z" fill="#ED4C5C"/>
<path d="M1.5666 15.3666H18.4333C18.7333 14.8666 18.9999 14.3666 19.2333 13.8333H0.766602C0.999935 14.3666 1.2666 14.8666 1.5666 15.3666Z" fill="white"/>
<path d="M2.76665 16.9H17.2333C17.6666 16.4333 18.1 15.9 18.4333 15.3667H1.56665C1.89998 15.9333 2.33332 16.4333 2.76665 16.9Z" fill="#ED4C5C"/>
<path d="M4.63339 18.4334H15.3667C16.0667 18 16.6667 17.4667 17.2334 16.9H2.76672C3.33339 17.5 3.96672 18 4.63339 18.4334Z" fill="white"/>
<path d="M9.99997 20C11.9666 20 13.8 19.4333 15.3666 18.4333H4.6333C6.19997 19.4333 8.0333 20 9.99997 20Z" fill="#ED4C5C"/>
<path d="M4.66667 1.53333C3.96667 1.96667 3.33333 2.5 2.76667 3.06667C2.3 3.53333 1.9 4.06667 1.56667 4.6C1.26667 5.1 0.966667 5.6 0.766667 6.13333C0.566667 6.63333 0.4 7.13333 0.266667 7.66667C0.133333 8.16667 0.0666666 8.66667 0.0333333 9.2C-3.22859e-08 9.46667 0 9.73333 0 10H10V0C8.03333 0 6.23333 0.566667 4.66667 1.53333Z" fill="#428BC1"/>
<path d="M7.66667 0.333359L7.83334 0.833359H8.33334L7.93334 1.16669L8.06667 1.66669L7.66667 1.36669L7.26667 1.66669L7.40001 1.16669L7.00001 0.833359H7.50001L7.66667 0.333359ZM9.00001 2.33336L9.16667 2.83336H9.66667L9.26667 3.16669L9.40001 3.66669L9.00001 3.36669L8.60001 3.66669L8.73334 3.16669L8.33334 2.83336H8.83334L9.00001 2.33336ZM6.33334 2.33336L6.50001 2.83336H7.00001L6.60001 3.16669L6.73334 3.66669L6.33334 3.36669L5.93334 3.66669L6.06667 3.16669L5.66667 2.83336H6.16667L6.33334 2.33336ZM7.66667 4.33336L7.83334 4.83336H8.33334L7.93334 5.16669L8.06667 5.66669L7.66667 5.36669L7.26667 5.66669L7.40001 5.16669L7.00001 4.83336H7.50001L7.66667 4.33336ZM5.00001 4.33336L5.16667 4.83336H5.66667L5.26667 5.16669L5.40001 5.66669L5.00001 5.36669L4.60001 5.66669L4.73334 5.16669L4.33334 4.83336H4.83334L5.00001 4.33336ZM2.33334 4.33336L2.50001 4.83336H3.00001L2.60001 5.16669L2.73334 5.66669L2.33334 5.36669L1.93334 5.66669L2.06667 5.16669L1.66667 4.83336H2.16667L2.33334 4.33336ZM9.00001 6.33336L9.16667 6.83336H9.66667L9.26667 7.16669L9.40001 7.66669L9.00001 7.36669L8.60001 7.66669L8.73334 7.16669L8.33334 6.83336H8.83334L9.00001 6.33336ZM6.33334 6.33336L6.50001 6.83336H7.00001L6.60001 7.16669L6.73334 7.66669L6.33334 7.36669L5.93334 7.66669L6.06667 7.16669L5.66667 6.83336H6.16667L6.33334 6.33336ZM3.66667 6.33336L3.83334 6.83336H4.33334L3.93334 7.16669L4.06667 7.66669L3.66667 7.36669L3.26667 7.66669L3.40001 7.16669L3.00001 6.83336H3.50001L3.66667 6.33336ZM7.66667 8.33336L7.83334 8.83336H8.33334L7.93334 9.16669L8.06667 9.66669L7.66667 9.36669L7.26667 9.66669L7.40001 9.16669L7.00001 8.83336H7.50001L7.66667 8.33336ZM5.00001 8.33336L5.16667 8.83336H5.66667L5.26667 9.16669L5.40001 9.66669L5.00001 9.36669L4.60001 9.66669L4.73334 9.16669L4.33334 8.83336H4.83334L5.00001 8.33336ZM2.33334 8.33336L2.50001 8.83336H3.00001L2.60001 9.16669L2.73334 9.66669L2.33334 9.36669L1.93334 9.66669L2.06667 9.16669L1.66667 8.83336H2.16667L2.33334 8.33336ZM3.26667 3.66669L3.66667 3.36669L4.06667 3.66669L3.90001 3.16669L4.30001 2.83336H3.80001L3.66667 2.33336L3.50001 2.83336H3.03334L3.43334 3.13336L3.26667 3.66669ZM0.600008 7.66669L1.00001 7.36669L1.40001 7.66669L1.23334 7.16669L1.63334 6.83336H1.16667L1.00001 6.33336L0.833341 6.83336H0.500008C0.500008 6.86669 0.466675 6.90002 0.466675 6.93336L0.733341 7.13336L0.600008 7.66669Z" fill="white"/>
</svg>